<?xml version="1.0" encoding="UTF-8" standalone="no"?>
<!-- Created with Inkscape (http://www.inkscape.org/) -->

<svg
   xmlns:dc="http://purl.org/dc/elements/1.1/"
   xmlns:cc="http://creativecommons.org/ns#"
   xmlns:rdf="http://www.w3.org/1999/02/22-rdf-syntax-ns#"
   xmlns:svg="http://www.w3.org/2000/svg"
   xmlns="http://www.w3.org/2000/svg"
   xmlns:sodipodi="http://sodipodi.sourceforge.net/DTD/sodipodi-0.dtd"
   xmlns:inkscape="http://www.inkscape.org/namespaces/inkscape"
   id="svg2"
   sodipodi:docname="loader.svg"
   inkscape:export-filename="F:\Mis Documentos (1)\Vector\My OCALs\Montacargas.png"
   viewBox="0 0 500 350.45"
   inkscape:export-xdpi="90"
   version="1.1"
   inkscape:export-ydpi="90"
   inkscape:version="0.91 r13725">
  <defs
     id="defs4234" />
  <sodipodi:namedview
     id="base"
     fit-margin-left="0"
     inkscape:zoom="1.675775"
     borderopacity="1.0"
     inkscape:current-layer="g3018"
     inkscape:cx="206.04116"
     inkscape:cy="173.46748"
     borderlayer="true"
     inkscape:window-maximized="1"
     showgrid="false"
     fit-margin-right="0"
     inkscape:document-units="px"
     bordercolor="#666666"
     inkscape:window-x="0"
     inkscape:window-y="23"
     fit-margin-bottom="0"
     inkscape:window-width="1440"
     inkscape:pageopacity="0.0"
     inkscape:pageshadow="2"
     pagecolor="#ffffff"
     inkscape:window-height="851"
     fit-margin-top="0" />
  <g
     id="g3018"
     inkscape:label="Trazos copia"
     inkscape:groupmode="layer">
    <path
       id="path3043"
       style="fill:#000000;fill-opacity:0.0627451;stroke:#000000;stroke-width:2;stroke-opacity:0.0627451"
       inkscape:connector-curvature="0"
       d="m 351.273,11.646 0,84.188 84.188,0 0,-84.188 -84.188,0 z m 62.438,16.938 3.1562,2.2188 -17.719,27.656 -14.219,20.406 c -5.4962,-7.6466 -10.047,-16.39 -15.094,-25.062 l 8.9375,-4.4688 7.4375,14.875 27.5,-35.625 z" />
    <path
       id="path3046"
       d="m 351.273,99.343 0,20 8.5,0 0,-10.219 29.344,0 0,10.219 8.5,0 0,-10.219 29.312,0 0,10.219 8.5312,0 0,-20 -84.188,0 z"
       style="fill:#000000;fill-opacity:0.0627451;stroke:#000000;stroke-width:2;stroke-opacity:0.0627451"
       inkscape:connector-curvature="0" />
    <path
       d="m 307.073,124.7304 0,84.188 84.188,0 0,-84.188 -84.188,0 z m 62.438,16.938 3.1562,2.2188 -17.72,27.655 -14.22,20.406 c -5.5,-7.646 -10.05,-16.39 -15.09,-25.062 l 8.9375,-4.4688 7.4375,14.875 27.5,-35.625 z"
       inkscape:connector-curvature="0"
       style="fill:#000000;fill-opacity:0.0627451;stroke:#000000;stroke-width:2;stroke-opacity:0.0627451"
       id="path3083" />
    <path
       inkscape:connector-curvature="0"
       style="fill:#000000;fill-opacity:0.0627451;stroke:#000000;stroke-width:2;stroke-opacity:0.0627451"
       d="m 307.073,212.4224 0,20 8.5,0 0,-10.219 29.344,0 0,10.219 8.5,0 0,-10.219 29.312,0 0,10.219 8.5312,0 0,-20 -84.188,0 z"
       id="path3085" />
    <path
       d="m 307.073,237.8104 0,84.188 84.188,0 0,-84.188 -84.188,0 z m 62.438,16.938 3.1562,2.2188 -17.72,27.655 -14.22,20.406 c -5.5,-7.646 -10.05,-16.39 -15.09,-25.062 l 8.9375,-4.4688 7.4375,14.875 27.5,-35.625 z"
       inkscape:connector-curvature="0"
       style="fill:#000000;fill-opacity:0.0627451;stroke:#000000;stroke-width:2;stroke-opacity:0.0627451"
       id="path3089" />
    <path
       inkscape:connector-curvature="0"
       style="fill:#000000;fill-opacity:0.0627451;stroke:#000000;stroke-width:2;stroke-opacity:0.0627451"
       d="m 307.073,325.5024 0,20 8.5,0 0,-10.219 29.344,0 0,10.219 8.5,0 0,-10.219 29.312,0 0,10.219 8.5312,0 0,-20 -84.188,0 z"
       id="path3091" />
    <path
       d="m 395.473,124.7304 0,84.188 84.188,0 0,-84.188 -84.188,0 z m 62.438,16.938 3.1562,2.2188 -17.72,27.655 -14.22,20.406 c -5.5,-7.646 -10.05,-16.39 -15.09,-25.062 l 8.9375,-4.4688 7.4375,14.875 27.5,-35.625 z"
       inkscape:connector-curvature="0"
       style="fill:#000000;fill-opacity:0.0627451;stroke:#000000;stroke-width:2;stroke-opacity:0.0627451"
       id="path3095" />
    <path
       inkscape:connector-curvature="0"
       style="fill:#000000;fill-opacity:0.0627451;stroke:#000000;stroke-width:2;stroke-opacity:0.0627451"
       d="m 395.473,212.4224 0,20 8.5,0 0,-10.219 29.344,0 0,10.219 8.5,0 0,-10.219 29.312,0 0,10.219 8.5312,0 0,-20 -84.188,0 z"
       id="path3097" />
    <path
       d="m 395.473,237.8104 0,84.188 84.188,0 0,-84.188 -84.188,0 z m 62.438,16.938 3.1562,2.2188 -17.72,27.655 -14.22,20.406 c -5.5,-7.646 -10.05,-16.39 -15.09,-25.062 l 8.9375,-4.4688 7.4375,14.875 27.5,-35.625 z"
       inkscape:connector-curvature="0"
       style="fill:#000000;fill-opacity:0.0627451;stroke:#000000;stroke-width:2;stroke-opacity:0.0627451"
       id="path3101" />
    <path
       inkscape:connector-curvature="0"
       style="fill:#000000;fill-opacity:0.0627451;stroke:#000000;stroke-width:2;stroke-opacity:0.0627451"
       d="m 395.473,325.5024 0,20 8.5,0 0,-10.219 29.344,0 0,10.219 8.5,0 0,-10.219 29.312,0 0,10.219 8.5312,0 0,-20 -84.188,0 z"
       id="path3103" />
    <g
       transform="matrix(1.6808,0,0,1,-36.021,8.523)"
       style="fill:#000000;stroke:#000000;stroke-width:1.54270005;stroke-opacity:0.0627451;fill-opacity:0.0627451"
       id="g3024">
      <path
         inkscape:connector-curvature="0"
         style="fill:#000000;stroke:#000000;stroke-width:1.54270005;stroke-opacity:0.0627451;fill-opacity:0.0627451"
         d="m 145.98,257.95 c -11.578,0 -20.969,17.18 -20.969,38.375 0,21.195 9.391,38.375 20.969,38.375 11.578,0 20.969,-17.18 20.969,-38.375 0,-21.195 -9.391,-38.375 -20.969,-38.375 z m 0,20.062 c 5.5309,0 10.031,8.1874 10.031,18.312 0,10.1246 -4.5004,18.344 -10.031,18.344 -5.5309,0 -10,-8.2187 -10,-18.344 0,-10.1253 4.4691,-18.312 10,-18.312 z"
         id="path3026" />
      <path
         inkscape:connector-curvature="0"
         style="fill:#000000;stroke:#000000;stroke-width:1.54270005;stroke-opacity:0.0627451;fill-opacity:0.0627451"
         d="m 66.798,268.45 c -10.084,0 -18.281,14.978 -18.281,33.438 0,18.459 8.1977,33.438 18.281,33.438 10.084,0 18.25,-14.978 18.25,-33.438 0,-18.459 -8.1665,-33.438 -18.25,-33.438 z m 0,17.469 c 4.8171,0 8.7188,7.1504 8.7188,15.969 0,8.8183 -3.9017,15.969 -8.7188,15.969 -4.8171,0 -8.75,-7.1504 -8.75,-15.969 0,-8.8183 3.9329,-15.969 8.75,-15.969 z"
         id="path3028" />
    </g>
    <path
       id="path3032"
       sodipodi:nodetypes="ccccccccc"
       d="m 238.94107,80.679 0,183.44 17.91061,0 0,-150.16 87.74112,-6.25 0,-3.8125 -87.74112,0 0,-23.219 z"
       style="fill:#000000;stroke:#000000;stroke-width:2.00004387;stroke-opacity:0.0627451;fill-opacity:0.0627451"
       inkscape:connector-curvature="0" />
    <path
       id="path3035"
       d="m 66.19181,107.335 -27.365105,117.81 -18.4888,0 0,21.219 126.007895,0 0,-21.219 -12.8161,0 c 0.0758,-0.22188 0.15749,-0.45044 0.15749,-0.6875 l 0,-16.75 c 0,-1.7064 -2.07276,-3.0938 -4.6222,-3.0938 l -27.68109,0 c 0,0 -4.328905,-27.662 -9.664604,-32.594 -5.3357,-4.9322 -17.2282,-1 -17.2282,-1 l 14.0767,54.125 -31.672995,0 24.843904,-107.09 77.368905,0 12.3959,53.406 c -0.13413,0.051 -0.25266,0.0878 -0.36767,0.15625 l -29.93505,17.78 c -1.11538,0.6636 -0.85629,1.8968 0.57777,2.75 l 1.73324,1.0312 c 1.43406,0.8532 3.50682,1.0074 4.6222,0.34375 l 11.81804,-7.0625 23.63541,37.156 2.46876,10.531 c -10.94738,6.6028 -22.05882,13.215 -33.1958,19.812 l -127.058392,0 5.200059,57.594 8.1939,0 c -0.0097,-0.38222 -0.05252,-0.77144 -0.05252,-1.1562 0,-22.294 16.613363,-40.344 37.081809,-40.344 20.468446,0 37.081804,18.05 37.081804,40.344 0,0.38481 -0.0427,0.77403 -0.0525,1.1562 l 55.36218,0 c -0.30157,-2.1904 -0.52525,-4.4056 -0.52525,-6.6875 0,-24.798 18.46358,-44.906 41.2317,-44.906 8.92891,0 17.20131,3.0896 23.9514,8.3438 l 0,-14.344 0,-1.75 0,-21.5 0,-123.12 -17.9106,0 0,123.12 -12.02814,0 -27.83741,-119.97 0,-3.3438 -0.78788,0 0,-0.0625 -0.73535,0.0625 -107.046785,0 -0.73535,-0.0625 z m 106.993,71.25 5.14745,22.312 -11.71315,-18.406 6.56554,-3.9062 z"
       style="fill:#000000;stroke:#000000;stroke-width:2.00004387;fill-opacity:0.0627451;stroke-opacity:0.0627451"
       inkscape:connector-curvature="0" />
  </g>
  <metadata
     id="metadata4232">
    <rdf:RDF>
      <cc:Work>
        <dc:format>image/svg+xml</dc:format>
        <dc:type
           rdf:resource="http://purl.org/dc/dcmitype/StillImage" />
        <cc:license
           rdf:resource="http://creativecommons.org/licenses/publicdomain/" />
        <dc:publisher>
          <cc:Agent
             rdf:about="http://openclipart.org/">
            <dc:title>Openclipart</dc:title>
          </cc:Agent>
        </dc:publisher>
        <dc:title>Forklift</dc:title>
        <dc:date>2012-09-21T16:50:53</dc:date>
        <dc:description>A forklift</dc:description>
        <dc:source>https://openclipart.org/detail/172422/forklift-by-solvera-172422</dc:source>
        <dc:creator>
          <cc:Agent>
            <dc:title>SOlvera</dc:title>
          </cc:Agent>
        </dc:creator>
        <dc:subject>
          <rdf:Bag>
            <rdf:li>Forklift</rdf:li>
            <rdf:li>merchandise</rdf:li>
            <rdf:li>storage</rdf:li>
            <rdf:li>vehicles</rdf:li>
            <rdf:li>warehouse</rdf:li>
          </rdf:Bag>
        </dc:subject>
      </cc:Work>
      <cc:License
         rdf:about="http://creativecommons.org/licenses/publicdomain/">
        <cc:permits
           rdf:resource="http://creativecommons.org/ns#Reproduction" />
        <cc:permits
           rdf:resource="http://creativecommons.org/ns#Distribution" />
        <cc:permits
           rdf:resource="http://creativecommons.org/ns#DerivativeWorks" />
      </cc:License>
    </rdf:RDF>
  </metadata>
</svg>
